<svg preserveAspectRatio="none" overflow="visible" style="display: block;" width="44" height="44" viewBox="0 0 44 44" fill="none" xmlns="http://www.w3.org/2000/svg">
<g id="02-brief">
<path id="Vector" d="M28.4167 11.9167H9.16667C7.64788 11.9167 6.41667 13.1479 6.41667 14.6667V28.4167C6.41667 29.9355 7.64788 31.1667 9.16667 31.1667H28.4167C29.9355 31.1667 31.1667 29.9355 31.1667 28.4167V14.6667C31.1667 13.1479 29.9355 11.9167 28.4167 11.9167Z" stroke="#2F322D" stroke-width="1.4" stroke-linecap="round" stroke-linejoin="round"/>
<path id="Vector_2" d="M6.41667 15.5833L17.05 22.9167C17.5085 23.232 18.0519 23.4008 18.6083 23.4008C19.1648 23.4008 19.7082 23.232 20.1667 22.9167L31.1667 15.5833" stroke="#2F322D" stroke-width="1.4" stroke-linecap="round" stroke-linejoin="round"/>
<path id="Vector_3" d="M35.75 22C38.0417 22 39.875 23.8333 39.875 26.125C39.875 28.4167 38.0417 30.25 35.75 30.25V33L32.5417 29.7917" stroke="#2F322D" stroke-width="1.4" stroke-linecap="round" stroke-linejoin="round"/>
</g>
</svg>
